<svg width="45" height="54" viewBox="0 0 45 54" fill="none" xmlns="http://www.w3.org/2000/svg">
<path fill-rule="evenodd" clip-rule="evenodd" d="M19.63 0.0979298C18.774 0.208341 17.9447 0.507456 17.2875 0.942868C16.7594 1.2927 16.4437 1.66863 16.1099 2.34536C15.9046 2.76165 15.8772 2.77728 15.1466 2.89963C12.8518 3.2838 10.7196 4.30466 8.96898 5.85771C6.77578 7.80328 5.1293 10.5182 4.23554 13.6628C3.78 15.2656 3.65439 16.2407 3.649 18.2149L3.64372 20.1257L2.75556 20.645C1.1507 21.5835 0.00285838 22.9594 5.95078e-06 23.9484C-0.00200131 24.6355 0.503935 25.3025 1.30388 25.6669C1.52394 25.7672 1.56197 25.8422 1.51422 26.081C1.47302 26.2873 1.5176 26.4341 1.66677 26.5833C1.88134 26.7979 2.17905 26.8555 3.70805 26.9789L4.51191 27.0436L4.44324 27.3794C4.40542 27.5641 4.32893 27.7044 4.27326 27.6913C2.79697 27.3429 1.20796 28.0762 0.528233 29.4193C0.132168 30.202 0.100475 31.3657 0.454281 32.1386C1.00237 33.336 2.28385 33.8348 4.06978 33.546L4.60139 33.46L4.84902 34.2327C5.26474 35.53 5.92566 36.7441 6.88819 37.9789C7.16646 38.3358 7.39413 38.6619 7.39413 38.7035C7.39413 38.7451 7.16392 39.0712 6.88259 39.4281C4.83962 42.0202 3.25357 45.3043 2.85307 47.7722C2.5617 49.568 2.91582 51.4609 3.74704 52.5509C3.98263 52.8598 4.06249 52.8905 4.77391 52.9447C5.19818 52.977 6.18713 53.1005 6.97154 53.2192C8.79689 53.4953 11.0402 53.7231 13.5744 53.8898C16.0405 54.052 40.0507 54.0284 40.3588 53.8635C40.5753 53.7476 40.8294 53.0829 40.7229 52.9107C40.6844 52.8482 40.8896 52.5466 41.1792 52.2405C41.7983 51.5857 42.093 51.0458 42.3253 50.1408C43.1882 46.7797 39.6805 40.8728 34.7771 37.4293C34.7594 37.4169 35.0016 36.9513 35.3152 36.3947C35.6288 35.838 36.0426 34.9758 36.2347 34.4787C36.5385 33.6929 36.6113 33.5837 36.7929 33.6413C36.9079 33.6777 37.333 33.7025 37.7377 33.6964C38.9148 33.6784 40.0896 33.1007 40.9241 32.1293C41.7317 31.1891 42.0099 29.4602 41.5132 28.4676C40.8836 27.2094 39.4942 26.6734 37.952 27.0939C37.754 27.1479 37.7147 27.1169 37.7159 26.9087C37.7194 26.3696 37.7523 26.3623 39.8417 26.4382C41.4179 26.4954 41.8312 26.4805 42.0458 26.359C42.1911 26.2768 42.6565 26.0335 43.0803 25.8185C44.6615 25.0162 45.3119 23.9409 44.859 22.878C44.5707 22.2013 43.5122 21.3754 42.1107 20.7338C41.7844 20.5844 41.5181 20.43 41.5187 20.3907C41.5194 20.3514 41.5928 20.0815 41.682 19.7909C41.9191 19.0179 42.1501 17.3738 42.1508 16.4531C42.1543 11.9851 39.7924 7.38002 36.1825 4.81689C35.3967 4.25902 34.0377 3.60997 32.9901 3.29226C32.1664 3.04248 31.8787 3.00984 30.4248 3.00117C29.5242 2.99589 28.6143 3.02833 28.4027 3.07334C28.0218 3.15437 28.015 3.14973 27.6979 2.58774C27.1039 1.53508 25.9099 0.729864 24.403 0.365876C22.8964 0.00188796 21.1399 -0.0966903 19.63 0.0979298ZM23.8949 2.19173C25.284 2.50437 25.7707 2.83444 26.2566 3.79328C26.698 4.66453 26.8102 5.76252 26.9032 10.1233C27.0342 16.2652 27.0255 16.4517 26.4883 19.0413L26.3588 19.6651L22.6606 19.5972C20.6265 19.5599 18.6239 19.4987 18.2104 19.461L17.4585 19.3928L17.3401 18.5353C17.1264 16.988 17.0809 14.7496 17.2106 12.1778C17.2807 10.7863 17.3766 8.41165 17.4235 6.90076C17.4993 4.45829 17.5344 4.08701 17.7389 3.55249C18.0799 2.66159 18.5776 2.29401 19.9131 1.94619C20.3672 1.82806 22.9997 1.99035 23.8949 2.19173ZM31.0082 4.51164C33.0017 4.92318 34.6427 5.7978 36.0558 7.2022C38.8194 9.94854 39.921 13.1704 39.8106 18.1848C39.7907 19.0878 39.7501 19.8507 39.7204 19.8803C39.6908 19.91 39.3557 19.869 38.9759 19.7894C37.1926 19.4155 34.2873 19.3276 30.3274 19.5276C29.1989 19.5847 28.2598 19.6155 28.2407 19.5964C28.2215 19.5772 28.3442 19.2803 28.5136 18.9366C28.6828 18.5929 28.9088 17.9313 29.0156 17.4665C29.2938 16.2559 29.2723 13.0037 28.9675 10.1761C28.8422 9.0139 28.6908 7.39734 28.6307 6.58379C28.5708 5.77023 28.4921 4.92635 28.4559 4.70838L28.3899 4.31216L29.2225 4.31354C29.6804 4.31428 30.484 4.40345 31.0082 4.51164ZM15.4834 5.81777C15.3512 7.8615 15.31 14.1335 15.4213 15.3005C15.5459 16.6095 15.8368 18.1355 16.1036 18.8816L16.2697 19.3459L15.1333 19.2778C10.7517 19.0158 7.70514 19.08 5.81061 19.4745C5.43356 19.553 5.11736 19.6088 5.10796 19.5984C5.09856 19.588 5.18149 18.9853 5.29242 18.2589C6.08476 13.0688 7.92996 9.26547 10.7672 6.97398C11.6231 6.28266 13.3095 5.43361 14.3667 5.16154C15.6128 4.84098 15.5491 4.80357 15.4834 5.81777ZM16.955 21.3784C21.7468 21.6602 26.4402 21.696 30.4008 21.4811C33.3002 21.3238 34.155 21.312 35.4182 21.4124C38.5065 21.6575 41.8709 22.5847 42.3966 23.3353C42.5876 23.608 42.5244 23.8749 42.1959 24.1835L41.9433 24.4208L38.3234 24.3545C36.3324 24.318 32.2172 24.2328 29.1784 24.1651C21.401 23.9918 18.5387 24.1128 7.71106 25.0721C2.58578 25.5261 2.75418 25.5235 2.40862 25.153C1.7571 24.4544 1.71865 23.8494 2.28575 23.2216C3.15901 22.2549 5.13659 21.4948 7.60542 21.177C8.29169 21.0887 14.188 21.2157 16.955 21.3784ZM35.3637 26.3542C35.809 26.4217 35.8127 26.4259 35.8127 26.8615C35.8127 27.5395 35.5339 29.6173 35.3013 30.6736C33.9595 36.7645 30.3759 40.5625 24.7291 41.8787C21.9866 42.5179 18.756 42.5179 16.2891 41.8786C13.8137 41.237 11.7108 40.0263 9.87077 38.1829C7.30253 35.6102 5.88815 32.2774 5.73095 28.4284L5.6738 27.0284H7.57372C9.42664 27.0284 11.2359 26.9252 16.8494 26.4993C18.3601 26.3846 19.8576 26.2717 20.1772 26.2483C21.0856 26.182 34.8608 26.278 35.3637 26.3542ZM30.6123 28.034C29.9555 28.4003 29.9447 29.007 30.5709 30.3473C31.0725 31.4209 31.266 31.5808 31.7969 31.3609C32.3052 31.1503 32.3903 30.758 32.1936 29.533C32.0614 28.7097 31.9689 28.4191 31.7788 28.229C31.4599 27.9103 30.9785 27.8299 30.6123 28.034ZM11.2086 28.3915C10.8053 28.7682 10.7805 29.1835 11.1087 30.0608C11.3592 30.7303 11.8059 31.2547 12.1258 31.2547C12.2386 31.2547 12.449 31.1618 12.5934 31.0482C12.8282 30.8635 12.8623 30.7402 12.9182 29.8772C12.9889 28.7876 12.8974 28.467 12.4498 28.2355C11.9877 27.9965 11.5759 28.0483 11.2086 28.3915ZM39.8293 29.0096C39.9612 29.1774 40.0383 29.4363 40.0379 29.7105C40.0361 31.0752 39.2331 31.924 37.6707 32.2129C37.3347 32.275 37.0399 32.3059 37.0155 32.2816C36.9912 32.2572 37.0644 31.8379 37.1783 31.3498C37.2922 30.8616 37.441 30.0705 37.509 29.5915C37.6239 28.7827 37.6487 28.7247 37.8584 28.7746C37.9826 28.8042 38.298 28.7902 38.5595 28.7436C39.2255 28.625 39.5862 28.7005 39.8293 29.0096ZM4.22593 30.3302C4.22656 30.984 4.25773 31.704 4.29502 31.9304L4.36306 32.342L3.6173 32.2886C2.4382 32.2042 1.90057 31.7415 1.90057 30.811C1.90057 30.1405 2.4663 29.5009 3.24448 29.2916C4.26322 29.0176 4.22455 28.9768 4.22593 30.3302ZM25.6435 32.156C25.3437 32.4559 25.2879 32.6788 25.1512 34.124C25.0122 35.5937 24.5855 36.2762 23.4407 36.8603C22.8444 37.1646 21.517 37.4884 20.8662 37.4884C19.1123 37.4884 17.7663 36.38 17.2096 34.4772C16.8678 33.3083 16.8402 33.2622 16.4843 33.2622C16.0754 33.2622 15.8872 33.5499 15.7582 34.3716C15.4556 36.2994 16.4804 38.0885 18.4164 39.0125C19.4278 39.4953 20.2507 39.6416 21.5774 39.5745C23.3687 39.4839 24.7993 38.8747 25.9827 37.6984C27.3731 36.3164 27.963 34.0135 27.2727 32.6616C26.8623 31.8579 26.1597 31.6398 25.6435 32.156ZM34.9806 39.6808C36.4493 41.1889 38.3211 43.5109 38.0678 43.5109C38.0242 43.5109 37.8437 43.3718 37.6666 43.2021C36.8755 42.4431 34.7496 40.8292 34.1528 40.5345C33.7918 40.3563 33.2831 40.1864 33.0221 40.157L32.5476 40.1034L33.203 39.3781C33.5633 38.9792 33.885 38.6523 33.9178 38.6517C33.9504 38.6511 34.4288 39.1142 34.9806 39.6808ZM9.51263 41.6336C10.7997 43.4577 12.3036 44.995 15.8458 48.1078C16.6883 48.8481 17.9481 49.9075 18.6454 50.4617C20.4331 51.8828 20.3534 51.7531 19.4339 51.7466L18.6454 51.7412L18.2936 51.2976C17.7934 50.667 16.7993 49.8209 14.7365 48.2703C12.059 46.2576 9.90785 44.3014 7.73462 41.9027L7.28267 41.404L7.66754 40.6348C8.22894 39.513 8.22249 39.5167 8.54894 40.1341C8.70434 40.4279 9.13791 41.1026 9.51263 41.6336ZM33.0286 41.1589C34.0283 41.6414 35.5994 43.1555 37.7672 45.7254C38.523 46.6214 39.5289 47.5258 39.7696 47.5258C39.8994 47.5258 40.1045 48.6574 39.9945 48.7673C39.9673 48.7945 39.4788 48.3658 38.909 47.8148C36.246 45.2397 33.1542 42.6795 31.7218 41.8632L30.9482 41.4222L31.3468 41.0967C31.8129 40.7162 32.136 40.7281 33.0286 41.1589ZM12.4123 42.2945C13.0514 42.6075 14.0875 43.0396 14.7147 43.2546C15.7347 43.6042 15.8696 43.68 15.9937 43.9744C16.2593 44.6041 17.0116 45.407 18.5631 46.7164C19.4217 47.4411 20.9801 48.755 22.026 49.636C23.0719 50.5172 24.0454 51.3537 24.1893 51.4951L24.4511 51.7521H23.4462H22.4414L21.864 51.1603C21.1604 50.4393 19.9853 49.4938 17.4833 47.6356C14.5237 45.4376 12.5532 43.7018 10.9529 41.883L10.2994 41.1404L10.7748 41.4328C11.0363 41.5936 11.7731 41.9814 12.4123 42.2945ZM30.6676 42.0639C30.7955 42.1979 31.233 42.609 31.6397 42.9774C32.0465 43.3458 33.7579 45.0091 35.443 46.6734C37.128 48.3377 38.78 49.8785 39.1141 50.0974C39.4483 50.3164 39.7216 50.5634 39.7216 50.6462C39.7216 50.9178 39.3845 51.6466 39.2611 51.6418C39.1949 51.6393 38.9076 51.5758 38.6229 51.5008C38.2813 51.4107 38.1634 51.342 38.2764 51.2985C38.583 51.1809 38.5993 50.7537 38.3142 50.3109C37.9929 49.8117 36.9073 48.7588 35.7071 47.7821C35.2132 47.3801 34.3337 46.622 33.7526 46.0972C32.1908 44.6865 31.3082 43.9607 30.5089 43.4291C29.9141 43.0335 29.7675 42.9762 29.6342 43.0869C29.5461 43.16 29.474 43.2607 29.474 43.3107C29.474 43.3606 30.6269 44.5554 32.0359 45.9656C33.4449 47.3758 35.0738 49.0288 35.6557 49.639C36.4097 50.4296 36.8794 50.8289 37.2904 51.0287L37.8671 51.3091L36.9192 51.2551L35.9712 51.2011L35.606 50.7635C34.7927 49.7889 30.2066 45.7367 28.4341 44.4265C27.9493 44.0682 27.4502 43.6938 27.3249 43.5945L27.097 43.4138L27.4662 43.2775C28.0193 43.0731 29.8134 42.1831 30.0551 41.9932C30.3366 41.7719 30.3949 41.7785 30.6676 42.0639ZM7.92235 43.3115C9.5907 45.2675 14.2375 49.694 15.9775 50.9847C16.4861 51.362 16.9022 51.6956 16.9022 51.726C16.9022 51.7564 16.636 51.7499 16.3107 51.7117C15.8496 51.6575 15.5758 51.5416 15.0694 51.1858C14.712 50.9349 14.1343 50.559 13.7857 50.3508C12.977 49.8675 11.4545 48.5888 10.0258 47.1927C8.9057 46.0983 6.56206 43.5561 6.48019 43.3469C6.42768 43.2126 6.84477 42.2397 6.9501 42.2508C6.99098 42.2552 7.42846 42.7324 7.92235 43.3115ZM26.2166 43.8026C26.236 43.8469 26.7035 44.2613 27.2555 44.7234C27.8075 45.1857 29.5196 46.835 31.0604 48.3886C33.5743 50.9237 33.836 51.2198 33.6125 51.2759C33.4181 51.3247 33.2349 51.2272 32.7788 50.8321C32.4572 50.5537 31.5044 49.8174 30.6614 49.1963C29.3948 48.263 26.4387 45.8268 24.837 44.3961L24.4678 44.0663L25.1485 43.9066C25.9612 43.716 26.1697 43.6957 26.2166 43.8026ZM18.7354 44.1523C19.2669 44.2151 19.8444 44.2874 20.0187 44.3128C20.2581 44.3479 20.5479 44.5978 21.2037 45.3349C22.1516 46.4006 25.8457 50.0843 26.9301 51.0454C27.5852 51.6259 27.5979 51.6465 27.2998 51.6476C27.1302 51.6483 26.8171 51.6776 26.6043 51.7128C26.2517 51.7711 26.2024 51.7481 26.0507 51.4547C25.959 51.2775 25.5699 50.9035 25.1859 50.6235C23.5547 49.4343 17.1135 44.1166 17.1135 43.9592C17.1135 43.9306 17.261 43.9366 17.4412 43.9726C17.6214 44.0087 18.2038 44.0896 18.7354 44.1523ZM7.29757 45.6231C8.67793 47.2788 11.7708 50.4535 12.6657 51.1331L13.3417 51.6465H12.606H11.8703L10.3673 50.4179C9.0087 49.3074 7.49322 47.788 6.08634 46.1256C5.66513 45.6278 5.58263 45.465 5.63101 45.2275C5.73011 44.7406 6.03024 44.1114 6.11624 44.2101C6.16082 44.2614 6.69243 44.8972 7.29757 45.6231ZM26.5394 47.3938C28.3111 49.1226 30.0279 50.7273 30.3546 50.9597C30.6812 51.1921 30.9496 51.4111 30.9507 51.4462C30.952 51.4814 30.6344 51.54 30.2449 51.5764L29.5368 51.6426L29.2178 51.2483C28.7489 50.6685 28.2012 50.168 26.7272 48.9722C25.226 47.7542 23.6734 46.3819 22.4712 45.2105L21.6486 44.409L22.0486 44.3447C22.2686 44.3093 22.6442 44.2737 22.8834 44.2655C23.3164 44.2506 23.3322 44.2641 26.5394 47.3938ZM7.16002 49.005C7.48287 49.3828 8.15393 50.1079 8.6512 50.6163C9.39822 51.3801 9.5139 51.5408 9.31666 51.5408C9.18524 51.5408 9.05033 51.4693 9.01684 51.3818C8.98324 51.2943 8.53045 50.8678 8.01067 50.4341C7.49079 50.0002 6.58689 49.1967 6.00193 48.6483L4.9384 47.6514L5.06824 47.1102L5.19808 46.569L5.88551 47.4436C6.26362 47.9247 6.83706 48.6273 7.16002 49.005ZM6.20393 50.1578L7.49629 51.5207L6.20393 51.4638C5.49304 51.4325 4.89023 51.3881 4.86434 51.3651C4.77222 51.2833 4.72848 48.7937 4.81923 48.7943C4.86994 48.7946 5.49304 49.4081 6.20393 50.1578Z" fill="black"/>
</svg>
