<svg id="Camada_1" data-name="Camada 1" xmlns="http://www.w3.org/2000/svg" viewBox="0 0 928.91 171.56"><path d="M270.1,536.9H255.9a5.07,5.07,0,0,0-5.07,5.07v66.65a5.07,5.07,0,0,1-5.07,5.07H180.19a5.08,5.08,0,0,1-4.67-7.05L192,567.76a5.06,5.06,0,0,1,6.64-2.69l19.89,8.42a5.07,5.07,0,0,0,6.65-2.69l11.93-28.16a5.08,5.08,0,0,0-2.69-6.65l-74-31.34a5.1,5.1,0,0,0-5.27.81l-26,22.18a5.07,5.07,0,0,0,1.31,8.53l23.49,10a5.07,5.07,0,0,1,2.69,6.65l-24.5,57.83a5.07,5.07,0,0,1-4.67,3.09H116.2a5.07,5.07,0,0,1-5.07-5.07V542a5.07,5.07,0,0,0-5.07-5.07H91.82a5.07,5.07,0,0,1-3.5-8.74l89-84.63a5.07,5.07,0,0,1,7,0l89.3,84.63A5.07,5.07,0,0,1,270.1,536.9Z" transform="translate(-86.74 -442.13)"/><path d="M392.5,560.2q0,19.56-11.41,33.19l6.37,6.56a4.93,4.93,0,0,1-.07,6.95L382,612.26a4.94,4.94,0,0,1-7-.06l-7.64-7.85A52.19,52.19,0,0,1,342.87,610q-23.56,0-36.16-14.67t-12.59-34.82q0-21,13.34-35.41t36-14.37q23.12,0,36.07,14.6T392.5,560.2Zm-21.48.59q0-15.4-7.12-24t-20.59-8.59q-14.37,0-21,9.11t-6.67,22.74q0,13.19,6.52,22.82t21.78,9.63a30.79,30.79,0,0,0,10.37-1.63l-11.11-11.46a4.94,4.94,0,0,1,.07-6.95l5.43-5.35a4.93,4.93,0,0,1,7,.07l11.64,12Q371,571.75,371,560.79Z" transform="translate(-86.74 -442.13)"/><path d="M493.84,529.08h0a4.31,4.31,0,0,0-4.3,4.3v35.26a51.84,51.84,0,0,1-3.85,19.71A33.78,33.78,0,0,1,472.8,603.9q-9,6.09-24.45,6.08-21.92,0-31-12.08a44.85,44.85,0,0,1-9-27.63V533.38a4.3,4.3,0,0,0-4.3-4.3h0a4.29,4.29,0,0,1-4.29-4.29v-8.3a4.3,4.3,0,0,1,4.29-4.3h31.12a4.3,4.3,0,0,1,4.29,4.3v8.3a4.29,4.29,0,0,1-4.29,4.29H432.5a4.31,4.31,0,0,0-4.3,4.3v36.3q0,9.93,4.82,16.37t16.37,6.45q11.42,0,16.52-6.52T471,568.64V533.38a4.3,4.3,0,0,0-4.29-4.3h-2.67a4.3,4.3,0,0,1-4.3-4.29v-8.3a4.31,4.31,0,0,1,4.3-4.3h29.78a4.31,4.31,0,0,1,4.3,4.3v8.3A4.3,4.3,0,0,1,493.84,529.08Z" transform="translate(-86.74 -442.13)"/><path d="M543.32,608.5H513.1a5.19,5.19,0,0,1-5.19-5.19v-6.52a5.18,5.18,0,0,1,5.19-5.18h0a5.18,5.18,0,0,0,5.18-5.19V534.27a5.19,5.19,0,0,0-5.18-5.19h0a5.18,5.18,0,0,1-5.19-5.18v-6.52a5.19,5.19,0,0,1,5.19-5.19h30.22a5.19,5.19,0,0,1,5.19,5.19v6.52a5.18,5.18,0,0,1-5.19,5.18h0a5.19,5.19,0,0,0-5.18,5.19v52.15a5.18,5.18,0,0,0,5.18,5.19h0a5.18,5.18,0,0,1,5.19,5.18v6.52A5.19,5.19,0,0,1,543.32,608.5Z" transform="translate(-86.74 -442.13)"/><path d="M640.82,596.4a5,5,0,0,1-1.68,3.37q-4.77,4.17-13.66,7A69.74,69.74,0,0,1,604.66,610q-20.6,0-34.52-13.26T556.21,562A61.9,61.9,0,0,1,561,538.86a46.24,46.24,0,0,1,15.55-20q10.82-8.15,29-8.15,12.3,0,21.19,3.63a49.68,49.68,0,0,1,11.82,6.51,5,5,0,0,1,1.87,3.42l1.62,15.3a5,5,0,0,1-4.54,5.54l-6.4.58a5,5,0,0,1-5.42-4.2l-.94-5.75a5,5,0,0,0-2.63-3.65,32.24,32.24,0,0,0-7.09-2.56,43.83,43.83,0,0,0-10.37-1.33q-12.43,0-19.78,8.29t-7.33,24.15q0,16.75,8,24.3T606,592.5q9.5,0,15.68-2.64a5.11,5.11,0,0,0,3.06-3.94l1-7.07a5,5,0,0,1,5.44-4.29l6.41.59a5,5,0,0,1,4.56,5.43Z" transform="translate(-86.74 -442.13)"/><path d="M743.83,608.5h-36.4a2.77,2.77,0,0,1-2.76-2.77V594.37a2.76,2.76,0,0,1,2.76-2.76h.63a2.77,2.77,0,0,0,2.22-4.41L696.75,569a2.76,2.76,0,0,0-2.21-1.12h-7.7a2.77,2.77,0,0,0-2.77,2.77v18.17a2.77,2.77,0,0,0,2.77,2.77h2.62a2.76,2.76,0,0,1,2.76,2.76v11.36a2.77,2.77,0,0,1-2.76,2.77H656.61a2.77,2.77,0,0,1-2.76-2.77V594.37a2.76,2.76,0,0,1,2.76-2.76h4.85a2.77,2.77,0,0,0,2.76-2.77v-57a2.77,2.77,0,0,0-2.76-2.77h-4.85a2.76,2.76,0,0,1-2.76-2.76V515a2.77,2.77,0,0,1,2.76-2.77H689.9a2.77,2.77,0,0,1,2.77,2.77v11.36a2.76,2.76,0,0,1-2.77,2.76h-3.06a2.77,2.77,0,0,0-2.77,2.77V549a2.76,2.76,0,0,0,2.77,2.76h8a2.77,2.77,0,0,0,2.21-1.1l12.89-17.14a2.77,2.77,0,0,0-2.21-4.43h0a2.76,2.76,0,0,1-2.77-2.76V515a2.77,2.77,0,0,1,2.77-2.77H742.2A2.77,2.77,0,0,1,745,515v11.36a2.76,2.76,0,0,1-2.77,2.76h-6.72a2.77,2.77,0,0,0-2.16,1l-20.8,26.17a2.76,2.76,0,0,0,0,3.38l23.36,30.83a2.77,2.77,0,0,0,2.2,1.1h5.79a2.76,2.76,0,0,1,2.77,2.76v11.36A2.77,2.77,0,0,1,743.83,608.5Z" transform="translate(-86.74 -442.13)"/><path d="M753.56,566V552.43a5.27,5.27,0,0,1,5.27-5.27H771a5.27,5.27,0,0,1,5.27,5.27V566a5.27,5.27,0,0,1-5.27,5.27H758.83A5.27,5.27,0,0,1,753.56,566Z" transform="translate(-86.74 -442.13)"/><path d="M858,542.27l-7.36.65a5,5,0,0,1-5.36-4L844,533.09a5,5,0,0,0-4.93-4H823a5,5,0,0,0-5,5V551a5,5,0,0,0,5,5h30.38a5,5,0,0,1,5,5v6.68a5,5,0,0,1-5,5H823a5,5,0,0,0-5,5v8.76a5,5,0,0,0,5,5h5.64a5,5,0,0,1,5,5v6.83a5,5,0,0,1-5,5H792.82a5,5,0,0,1-5-5v-6.83a5,5,0,0,1,5-5h.3a5,5,0,0,0,5-5V534.12a5,5,0,0,0-5-5h-.3a5,5,0,0,1-5-5v-6.82a5,5,0,0,1,5-5h62.71a5,5,0,0,1,5,4.54l2,20A5,5,0,0,1,858,542.27Z" transform="translate(-86.74 -442.13)"/><path d="M907.3,608.5H876.87a5.08,5.08,0,0,1-5.08-5.09v-6.72a5.07,5.07,0,0,1,5.08-5.08h.2a5.09,5.09,0,0,0,5.09-5.09V534.17a5.09,5.09,0,0,0-5.09-5.09h-.2a5.07,5.07,0,0,1-5.08-5.08v-6.72a5.08,5.08,0,0,1,5.08-5.09H907.3a5.08,5.08,0,0,1,5.08,5.09V524a5.07,5.07,0,0,1-5.08,5.08h-.2a5.09,5.09,0,0,0-5.09,5.09v52.35a5.09,5.09,0,0,0,5.09,5.09h.2a5.07,5.07,0,0,1,5.08,5.08v6.72A5.08,5.08,0,0,1,907.3,608.5Z" transform="translate(-86.74 -442.13)"/><path d="M1013.61,608.5H978.42a2,2,0,0,1-2-2V593.65a2,2,0,0,1,2-2h.38a2,2,0,0,0,1.55-3.36L968.23,574a2,2,0,0,0-3.16.06l-11.15,14.3a2,2,0,0,0,1.6,3.29h1.79a2,2,0,0,1,2,2v12.81a2,2,0,0,1-2,2H921.09a2,2,0,0,1-2-2V593.65a2,2,0,0,1,2-2h7.37a2,2,0,0,0,1.57-.74l25.25-30.37a2,2,0,0,0,0-2.65l-24.47-28.07a2.06,2.06,0,0,0-1.54-.7h-5.92a2,2,0,0,1-2-2V514.23a2,2,0,0,1,2-2H957.9a2,2,0,0,1,2,2v12.82a2,2,0,0,1-2,2h0a2,2,0,0,0-1.53,3.38l10.56,12.12a2,2,0,0,0,3.13-.06l9.74-12.12a2,2,0,0,0-1.59-3.32h-.67a2,2,0,0,1-2-2V514.23a2,2,0,0,1,2-2h33.85a2,2,0,0,1,2,2v12.82a2,2,0,0,1-2,2h-5.92a2,2,0,0,0-1.54.71l-24,27.74a2,2,0,0,0,0,2.67l26.54,30.7a2,2,0,0,0,1.54.71h5.62a2,2,0,0,1,2,2v12.81A2,2,0,0,1,1013.61,608.5Z" transform="translate(-86.74 -442.13)"/></svg>